HIERARCHY
ROOT hips
{
  OFFSET 0 9.313263304106702 1.2146308026317778
  CHANNELS 6 Xposition Yposition Zposition Yrotation Xrotation Zrotation
  JOINT spine
  {
    OFFSET -6.402521e-31 0.5173342420023708 0
    CHANNELS 3 Yrotation Xrotation Zrotation
    JOINT chest
    {
      OFFSET 0 1.130544299341115 0
      CHANNELS 3 Yrotation Xrotation Zrotation
      JOINT upperChest
      {
        OFFSET 0 1.0863555061129995 0
        CHANNELS 3 Yrotation Xrotation Zrotation
        JOINT neck
        {
          OFFSET 0 1.3773706506454462 0
          CHANNELS 3 Yrotation Xrotation Zrotation
          JOINT head
          {
            OFFSET 0 0.7374408940073979 0
            CHANNELS 3 Yrotation Xrotation Zrotation
            JOINT leftEye
            {
              OFFSET 0.25066580148932727 0.6408406698778757 0.15963719178883284
              CHANNELS 3 Yrotation Xrotation Zrotation
              End Site
              {
                OFFSET 0.25066580148932727 0.6408406698778757 0.15963719178883284
              }
            }
            JOINT rightEye
            {
              OFFSET -0.25066576739704244 0.6408406384191823 0.15963727561643756
              CHANNELS 3 Yrotation Xrotation Zrotation
              End Site
              {
                OFFSET -0.25066576739704244 0.6408406384191823 0.15963727561643756
              }
            }
          }
        }
        JOINT leftShoulder
        {
          OFFSET 0.3761817444281191 1.0539491987447769 0
          CHANNELS 3 Yrotation Xrotation Zrotation
          JOINT leftUpperArm
          {
            OFFSET 0.8702844380000002 0 0
            CHANNELS 3 Yrotation Xrotation Zrotation
            JOINT leftLowerArm
            {
              OFFSET 2.198527310000323 0 0
              CHANNELS 3 Yrotation Xrotation Zrotation
              JOINT leftHand
              {
                OFFSET 2.146852313968281 0 0
                CHANNELS 3 Yrotation Xrotation Zrotation
                JOINT leftIndexProximal
                {
                  OFFSET 0.6585177834681599 0.07380250427007962 0.18382213159631788
                  CHANNELS 3 Yrotation Xrotation Zrotation
                  JOINT leftIndexIntermediate
                  {
                    OFFSET 0.3323021288626682 -0.009606893929485771 -0.012820872253340998
                    CHANNELS 3 Yrotation Xrotation Zrotation
                    JOINT leftIndexDistal
                    {
                      OFFSET 0.2045908926985518 -0.0071133989147997845 -0.006828784783599051
                      CHANNELS 3 Yrotation Xrotation Zrotation
                      End Site
                      {
                        OFFSET 0.2045908926985518 -0.0071133989147997845 -0.006828784783599051
                      }
                    }
                  }
                }
                JOINT leftLittleProximal
                {
                  OFFSET 0.6110054258835662 0.07380246363125398 -0.29175655876064077
                  CHANNELS 3 Yrotation Xrotation Zrotation
                  JOINT leftLittleIntermediate
                  {
                    OFFSET 0.3144281999999998 -2.5124724523095665e-9 1.8658118799974588e-7
                    CHANNELS 3 Yrotation Xrotation Zrotation
                    JOINT leftLittleDistal
                    {
                      OFFSET 0.18116185580251631 0.002815456192251098 0.0034826415518049436
                      CHANNELS 3 Yrotation Xrotation Zrotation
                      End Site
                      {
                        OFFSET 0.18116185580251631 0.002815456192251098 0.0034826415518049436
                      }
                    }
                  }
                }
                JOINT leftMiddleProximal
                {
                  OFFSET 0.6637478005691111 0.07380246480054087 0.02046981859247815
                  CHANNELS 3 Yrotation Xrotation Zrotation
                  JOINT leftMiddleIntermediate
                  {
                    OFFSET 0.3705733999999994 -2.9611069152224445e-9 9.35054791928458e-8
                    CHANNELS 3 Yrotation Xrotation Zrotation
                    JOINT leftMiddleDistal
                    {
                      OFFSET 0.22861063500000056 -1.82673876025774e-9 -1.6740782024515788e-7
                      CHANNELS 3 Yrotation Xrotation Zrotation
                      End Site
                      {
                        OFFSET 0.22861063500000056 -1.82673876025774e-9 -1.6740782024515788e-7
                      }
                    }
                  }
                }
                JOINT leftRingProximal
                {
                  OFFSET 0.6561845547265777 0.07380246406440083 -0.13588087571513918
                  CHANNELS 3 Yrotation Xrotation Zrotation
                  JOINT leftRingIntermediate
                  {
                    OFFSET 0.3437531000000005 -2.746796123886952e-9 1.4935781944558357e-7
                    CHANNELS 3 Yrotation Xrotation Zrotation
                    JOINT leftRingDistal
                    {
                      OFFSET 0.1983118991198174 -0.002467117924596085 -0.004538141969590015
                      CHANNELS 3 Yrotation Xrotation Zrotation
                      End Site
                      {
                        OFFSET 0.1983118991198174 -0.002467117924596085 -0.004538141969590015
                      }
                    }
                  }
                }
                JOINT leftThumbProximal
                {
                  OFFSET 0.09767004258864787 -0.14930060425447422 -0.07008212897521154
                  CHANNELS 3 Yrotation Xrotation Zrotation
                  JOINT leftThumbIntermediate
                  {
                    OFFSET 0.36682123028154767 -0.015768465060082004 0.28693641268151077
                    CHANNELS 3 Yrotation Xrotation Zrotation
                    JOINT leftThumbDistal
                    {
                      OFFSET 0.21091084272403915 -0.016756648201192714 0.1933767059105508
                      CHANNELS 3 Yrotation Xrotation Zrotation
                      End Site
                      {
                        OFFSET 0.21091084272403915 -0.016756648201192714 0.1933767059105508
                      }
                    }
                  }
                }
              }
            }
          }
        }
        JOINT rightShoulder
        {
          OFFSET -0.37618174442811925 1.0539491987447769 0
          CHANNELS 3 Yrotation Xrotation Zrotation
          JOINT rightUpperArm
          {
            OFFSET -0.870284438 0 0
            CHANNELS 3 Yrotation Xrotation Zrotation
            JOINT rightLowerArm
            {
              OFFSET -2.1985273100003235 0 0
              CHANNELS 3 Yrotation Xrotation Zrotation
              JOINT rightHand
              {
                OFFSET -2.1468523139682802 0 0
                CHANNELS 3 Yrotation Xrotation Zrotation
                JOINT rightIndexProximal
                {
                  OFFSET -0.6585177834681599 0.07380250427007962 0.18382213159631788
                  CHANNELS 3 Yrotation Xrotation Zrotation
                  JOINT rightIndexIntermediate
                  {
                    OFFSET -0.3323021288626682 -0.009606893929485771 -0.012820872253340998
                    CHANNELS 3 Yrotation Xrotation Zrotation
                    JOINT rightIndexDistal
                    {
                      OFFSET -0.2045908926985518 -0.0071133989147997845 -0.006828784783599051
                      CHANNELS 3 Yrotation Xrotation Zrotation
                      End Site
                      {
                        OFFSET -0.2045908926985518 -0.0071133989147997845 -0.006828784783599051
                      }
                    }
                  }
                }
                JOINT rightLittleProximal
                {
                  OFFSET -0.6110054258835662 0.07380246363125398 -0.29175655876064077
                  CHANNELS 3 Yrotation Xrotation Zrotation
                  JOINT rightLittleIntermediate
                  {
                    OFFSET -0.3144281999999998 -2.5124724523095665e-9 1.8658118799974588e-7
                    CHANNELS 3 Yrotation Xrotation Zrotation
                    JOINT rightLittleDistal
                    {
                      OFFSET -0.18116185580251631 0.002815456192251098 0.0034826415518049436
                      CHANNELS 3 Yrotation Xrotation Zrotation
                      End Site
                      {
                        OFFSET -0.18116185580251631 0.002815456192251098 0.0034826415518049436
                      }
                    }
                  }
                }
                JOINT rightMiddleProximal
                {
                  OFFSET -0.6637478005691111 0.07380246480054087 0.02046981859247815
                  CHANNELS 3 Yrotation Xrotation Zrotation
                  JOINT rightMiddleIntermediate
                  {
                    OFFSET -0.3705733999999994 -2.9611069152224445e-9 9.35054791928458e-8
                    CHANNELS 3 Yrotation Xrotation Zrotation
                    JOINT rightMiddleDistal
                    {
                      OFFSET -0.22861063500000056 -1.82673876025774e-9 -1.6740782024515788e-7
                      CHANNELS 3 Yrotation Xrotation Zrotation
                      End Site
                      {
                        OFFSET -0.22861063500000056 -1.82673876025774e-9 -1.6740782024515788e-7
                      }
                    }
                  }
                }
                JOINT rightRingProximal
                {
                  OFFSET -0.6561845547265777 0.07380246406440083 -0.13588087571513918
                  CHANNELS 3 Yrotation Xrotation Zrotation
                  JOINT rightRingIntermediate
                  {
                    OFFSET -0.3437531000000005 -2.746796123886952e-9 1.4935781944558357e-7
                    CHANNELS 3 Yrotation Xrotation Zrotation
                    JOINT rightRingDistal
                    {
                      OFFSET -0.1983118991198174 -0.002467117924596085 -0.004538141969590015
                      CHANNELS 3 Yrotation Xrotation Zrotation
                      End Site
                      {
                        OFFSET -0.1983118991198174 -0.002467117924596085 -0.004538141969590015
                      }
                    }
                  }
                }
                JOINT rightThumbProximal
                {
                  OFFSET -0.09767004258864787 -0.14930060425447422 -0.07008212897521154
                  CHANNELS 3 Yrotation Xrotation Zrotation
                  JOINT rightThumbIntermediate
                  {
                    OFFSET -0.36682123028154767 -0.015768465060082004 0.28693641268151077
                    CHANNELS 3 Yrotation Xrotation Zrotation
                    JOINT rightThumbDistal
                    {
                      OFFSET -0.21091084272403915 -0.016756648201192714 0.1933767059105508
                      CHANNELS 3 Yrotation Xrotation Zrotation
                      End Site
                      {
                        OFFSET -0.21091084272403915 -0.016756648201192714 0.1933767059105508
                      }
                    }
                  }
                }
              }
            }
          }
        }
      }
    }
  }
  JOINT leftUpperLeg
  {
    OFFSET 0.7715603 -0.3993844658041501 0
    CHANNELS 3 Yrotation Xrotation Zrotation
    JOINT leftLowerLeg
    {
      OFFSET 0 -3.529830000249343 0
      CHANNELS 3 Yrotation Xrotation Zrotation
      JOINT leftFoot
      {
        OFFSET 0 -4.154939295409685 0.004208579085223096
        CHANNELS 3 Yrotation Xrotation Zrotation
        JOINT leftToes
        {
          OFFSET 0 -0.6353414391261847 1.10414981190622
          CHANNELS 3 Yrotation Xrotation Zrotation
          End Site
          {
            OFFSET 0 -0.6015820691747853 1.10414981190622
          }
        }
      }
    }
  }
  JOINT rightUpperLeg
  {
    OFFSET -0.7715603 -0.3993844658041501 0
    CHANNELS 3 Yrotation Xrotation Zrotation
    JOINT rightLowerLeg
    {
      OFFSET 0 -3.529830000249343 0
      CHANNELS 3 Yrotation Xrotation Zrotation
      JOINT rightFoot
      {
        OFFSET 0 -4.154939295409685 0.004208579085223096
        CHANNELS 3 Yrotation Xrotation Zrotation
        JOINT rightToes
        {
          OFFSET 0 -0.6353414391261847 1.10414981190622
          CHANNELS 3 Yrotation Xrotation Zrotation
          End Site
          {
            OFFSET 0 -0.6015820691747853 1.10414981190622
          }
        }
      }
    }
  }
}
MOTION
Frames: 4
Frame Time: 0.03333333333333333
0.007890583947300911 8.971763090653852 1.343656679153842 -0.8622620993332286 -0.9383316036849593 -1.5288462151433782 -0.24736575537289596 1.0674124170970887 -1.503247862620894 0.16109117265085127 -7.684119756358564 -0.2173442863749641 0 0 0 -0.2954338464551386 -2.6867744000918696 -0.42500387610750084 -5.139131811124673 -8.129190269340533 -8.744318104212885 0 0 0 0 0 0 3.603505549873661 2.937401127594426 -19.304944849794968 -17.68413007973385 13.344633857885695 -59.20986782133901 -8.821658042414201 -0.000007947392944756398 0.0000010984818594444036 -1.979947251528223 0.2556387671874211 -1.612555788389711 -2.3211786458621306 -1.881461860124528 -19.25454007616882 3.1479397766079 0.9116650975687204 -32.27684928300124 1.9206560944452689 0.3254172546462505 -19.16805782184041 10.053693551008493 -6.19892257684944 -29.666007805976474 3.1146329474230914 1.043602926475419 -32.677393446577256 2.6348532294518625 0.7310967676318647 -26.975933217037614 3.790189730989948 0.20853328610846175 -19.928920883769887 2.95712777828957 0.7966773248735618 -30.197472070155914 2.536626238507095 0.5754892926145523 -25.562428186693044 7.503885981320985 2.0004738531682174 -27.46989038803341 3.278219589686684 1.0004418567069775 -33.9206044554044 3.4169945189203275 1.0967022900443262 -35.56597732780347 -3.382110818716726 -4.2330718929684314 22.341411346560683 13.149843823590071 17.40360765571388 -10.195478434821554 -15.947960031190796 -18.354243321497005 20.4317960636334 -4.334418182621747 2.683266662099345 13.487010283660055 -5.541969502720544 3.815242625655987 68.08537153244603 14.39142057223931 2.7628193573782257e-7 -2.1709023556066453e-7 14.809543823411047 11.698725279340875 2.320396480245709 5.365094684157599 -1.621479758596533 11.89814716858657 -2.9368070222135936 1.0545291118760678 39.393828533310874 -2.163422369851303 0.526058208866501 27.464227667047744 -16.680284134021797 -9.708011301327259 30.727122139606404 -2.2299098877759924 0.5322020125739899 29.604551908213523 -1.956558340453696 0.3598349536515343 23.895986312886226 0.5742570441417545 -1.6943611776666483 24.467920292015084 -2.5717721249341152 0.81053442026757 34.757404071975664 -2.226854303299525 0.5439193452590876 27.967757279677937 -4.230960241611829 0.4355357692161577 31.50656873035998 -2.77786847925357 0.9030916014399113 36.13945414317901 -1.8927311239595677 0.4042125606857856 23.767016590725195 2.2399038216747527 -3.30509314447571 -14.389792927939327 -14.285243018994828 16.45907858068143 1.3000828628970642 17.570635431018978 -18.578034876213124 -16.06131622519413 7.524524936362671 -5.700333272354188 3.6625930326926146 2.4135818363195494 16.320374809769525 2.723658429363644 0.798734800710016 -8.401585309674866 -6.684955928108419 -0.0000016715446348420178 3.454691778346348e-7 4.556742525476603e-7 -11.125388802757136 -1.2183344896221378 -4.598273839243508 -6.762706021824721 10.211442528542756 -2.9905681207301145 -0.7307834944205494 -4.177435782494583 8.557063846313572 0.0000013640295757989115 -0.00000930813214768182 0.000004212350639679229
0.009272239086302845 8.968663649125531 1.3602568165609714 -0.5038134500833799 -1.0623163225835526 -1.7007144135387147 -0.40793595072294553 0.9306459783170711 -1.3451572384139183 0.061665822092862914 -7.4771635898074775 -0.07968730938904177 0 0 0 -0.3201216475789744 -2.562887558046555 -0.39595093671581544 -5.214368592891192 -8.43718888590614 -9.081656844132754 0 0 0 0 0 0 3.4016550430958254 2.9527737755572456 -19.690223473175823 -17.526499747650362 11.225654979948606 -58.36581415739393 -7.093360592362395 -0.000013104975530885734 0.00001900497224898112 -0.6283214305531644 1.8751339184062952 -2.009672912459146 -2.246167032089714 -1.6201468047933554 -18.559490760449027 3.1204555868016928 0.8943657083660612 -31.960333419154637 1.9597420256263698 0.3391550505211284 -19.572273754675837 10.043933155472589 -6.1886141314297225 -29.166756664193468 3.0861390917296765 1.0239770252491822 -32.34053451254578 2.6024187115138164 0.7132944396576487 -26.615543810164958 3.93552283964168 0.265742269027152 -19.321717256659824 2.929639145707475 0.7807852238706041 -29.88818329469577 2.531959481504161 0.5732619520576615 -25.51196127713838 7.673550830107671 2.0499662244100683 -26.774349193886483 3.1719162898887117 0.9306030705315574 -32.6812574528832 3.4113537764189883 1.0926690742819956 -35.4985426797356 -3.382110818716726 -4.2330718929684314 22.341411346560683 12.815260204012246 17.265444932500706 -10.14105767489512 -15.730790505772584 -18.32406835676168 20.22682826409438 -4.429438825619564 2.69390315648082 13.472837167314601 -4.997719422605254 3.8252989460058537 67.84728019189754 14.715384442534283 -0.000009278606829573856 0.00002017466565907698 15.128403528923622 11.256932843519282 2.341038640954836 5.46401710046146 -1.6655308300791603 12.064621345754881 -2.9425461258580934 1.059238154494705 39.48491964306894 -2.1831698038760954 0.5363770405074814 27.73749447431606 -16.47414792806739 -9.747565898531274 31.521575774471152 -2.2020374763779933 0.5177013391909473 29.219431441706863 -1.9501670274206586 0.35716950019209154 23.811007286583404 0.76823691223317 -1.8197910753572346 24.834300258221255 -2.5638745261263303 0.8051672790827928 34.64037294775658 -2.241140417135531 0.551534927281444 28.166170172490567 -4.0243131955147335 0.3038963912951196 31.815841708334073 -2.7690330516182944 0.8966407593947484 36.005081536765225 -1.898800181447389 0.4069316043847521 23.84865188294489 2.2399038216747527 -3.30509314447571 -14.389792927939327 -15.186719458117583 16.67413238814478 1.4548384040527595 18.25357266088326 -18.22303830033174 -16.6348891660503 7.3896209738154885 -5.6528744727442435 3.7454534532452723 2.1715483959546535 16.60541873901762 2.9294593273749583 0.8022405706702288 -8.545329940474307 -6.689868308612873 -5.494231797634747e-7 -0.16752187387531897 -5.57229414007757e-7 -11.343807008943589 -0.6964659812344662 -4.572356888902099 -6.908861219953275 9.879121837153834 -2.8178136253498667 -0.7300459400919755 -4.202257714552407 8.673669770398911 0.000003268062288887352 -0.06312373395480224 6.785504741881314e-7
0.01106368208473379 8.960781097412108 1.3791246939576416 -0.22810798317723957 -1.2400334444358738 -1.7972511979813917 -0.5921153719028248 0.9478170331287263 -1.284500523331254 -0.04969737395081531 -7.249323132933891 0.033923090861369916 0 0 0 -0.33893360054980787 -2.42648637440121 -0.36475100469182387 -5.1488607691614865 -8.783296301505088 -9.666149050223874 0 0 0 0 0 0 3.0917694380056835 2.9685401135214247 -20.19804934931037 -17.741330491029125 9.08761641029282 -57.20072888231114 -5.610389233723583 -0.000019877456716758294 -0.0000022257354745371996 1.7244249894480894 5.107381726685603 -2.40326476318252 -2.251684608203798 -1.4551445602405826 -17.813160307616094 3.077343467483335 0.8676655300137225 -31.466349692432477 1.9714735705424464 0.34332751633258646 -19.693625399348512 9.942399210930335 -6.250736232442982 -28.66033899935187 3.055282875860939 1.0030206472422478 -31.977321426517396 2.589078316103503 0.7060450251543368 -26.467734832041 4.0579023194957164 0.31091749993421486 -18.76843807912406 2.898273792621783 0.7628982168708299 -29.53609010644558 2.540449080142808 0.5773241450300781 -25.603793164438386 7.706379935963072 2.036726875788013 -26.263527590549543 3.0986451888112465 0.8843454675095088 -31.837010794081575 3.418873494324813 1.0980430673007877 -35.58852692855226 -3.382110818716726 -4.2330718929684314 22.341411346560683 12.666007223814912 17.20326816740812 -10.116878400002166 -16.358639824466255 -18.27256684111026 20.675286857740073 -4.487519830947593 2.729506966342542 13.76205904355692 -4.787661027404438 2.8257340259141235 67.39464162345416 13.4810596522873 -0.0000039417024331709115 0.000004729029864794602 15.55330818191953 10.635842825990991 2.2309313766767893 5.263696957155227 -1.5863533805336323 11.90692591031312 -2.9326625054424045 1.0511481310516817 39.328349715858145 -2.20379783380894 0.5473078063328973 28.023847535841806 -16.538555889059833 -9.684499740627812 31.76984717917188 -2.164802662400511 0.4986873722482518 28.706941836391564 -1.9350754972290345 0.3509321910935897 23.6106665882417 0.7119037447878281 -1.7318752572239486 24.23142701022097 -2.552262652852879 0.797313928076029 34.46845255280715 -2.2470371618765945 0.5546736521747377 28.248243247140334 -4.089776153106374 0.352430431983273 31.286282893648735 -2.727144921575024 0.866463866094214 35.37208599894301 -1.9041482428581502 0.4093205770149912 23.92055191813135 2.2399038216747527 -3.30509314447571 -14.389792927939327 -15.28147004742912 16.697386482237125 1.4710192645771418 18.555131195216703 -18.101501595529154 -16.88021553420041 7.408549013245718 -5.654581358634856 3.7894242688357678 1.8033168994032893 17.14726832423315 3.020905080082804 0.8177173827311848 -8.766294182457996 -6.644490339179427 -0.0000048974360357307525 -0.5132178856155009 -4.048348221491896e-8 -11.422550864569837 -1.2378371318880472 -4.6436615290210765 -6.99144668358558 11.574379593153182 -2.9205897986105698 -0.7737606258129298 -4.2199401470557 9.004068004722665 4.3076984681694534e-7 -1.3275028536070728 8.73578856300631e-7
0.010905736549334093 8.957248167558149 1.3978847411333093 -0.07280099842556877 -1.4477963340186861 -1.8346018558605754 -0.8953872780940816 1.1605093856335411 -1.2958989525962143 -0.22537394469454178 -7.024685656979593 0.14177918285735355 0 0 0 -0.31990469369966446 -2.3326796965997842 -0.3829244416060871 -4.852193973294828 -8.943350392128377 -10.533399262543501 0 0 0 0 0 0 2.423915871804609 2.9266132359236905 -20.66109847880072 -19.28545366419304 8.28516108821922 -55.88870642697303 -5.392690596445458 -6.634235043421159e-7 -0.000015312744179249055 4.317178553258217 8.738610062776624 -3.3217246744630615 -2.3020993762940765 -1.4086885007952898 -17.32692354496558 3.047160641346086 0.8492768634524499 -31.121752361027443 1.9729561108240832 0.34385059549828145 -19.70920511899043 9.853425035064117 -6.311047249516012 -28.417425884640807 3.03756534853361 0.9910986679020256 -31.769543450018123 2.599803307098842 0.7118568938285471 -26.58643317500172 4.158985276293283 0.34562725057426763 -18.519450362658656 2.8782912295121212 0.7516312626461953 -29.312512228862715 2.5546549162422756 0.5841563393404381 -25.757401290078576 7.645076666126862 1.9970389529322112 -26.109100317814192 3.0899346969602766 0.8789317416027435 -31.737116059322464 3.4337670448872673 1.1087370710727265 -35.76698732598687 -3.382110818716726 -4.2330718929684314 22.341411346560683 12.790395937853157 17.25476480087506 -10.137189752791084 -17.31417801143922 -18.19532522786404 21.396342814402647 -4.327484633962842 2.7466263160567532 14.13478479451651 -4.9251152433001915 0.9120621525977928 67.06041560170344 10.981376592055692 9.621446604686628e-7 0.000014248930569388175 15.298952638653375 10.650247913186945 2.0021628713494124 5.020635891957005 -1.4505064380342376 11.42750439020159 -2.9099125158404884 1.032720542037877 38.9694281234361 -2.215138388208755 0.5533409559352657 28.181372221480224 -16.81555051831347 -9.43741578837094 31.57202075105131 -2.141485696547152 0.48699963239940114 28.387194925190148 -1.9185698464923804 0.34415953372442 23.391816859324532 0.5402161632357801 -1.5549564377003187 23.193870683569475 -2.5422515445144724 0.7905745523843485 34.32053380981521 -2.246526383777193 0.5544096103076884 28.24103550625852 -4.310394152590124 0.4936885001799882 30.419227759778543 -2.6710302585868737 0.8270967056384237 34.531724635800124 -1.9040386905796958 0.40928167596064335 23.919061200145908 2.2399038216747527 -3.30509314447571 -14.389792927939327 -14.654676727912808 16.527458612109946 1.3639917827766437 18.652716167372088 -18.12048759594597 -16.931963813290768 7.56159244078894 -5.536140744890079 3.8494895976841406 1.4337360254270748 17.45029543285678 2.981369796736688 0.8287337474416486 -8.510716029023872 -6.596868930618406 0.00000293690790498862 -1.4583840774356012 -0.0000020170312487454794 -11.421688874367238 -2.2702152533060094 -4.776671233895711 -6.9889090469949195 14.033428843523296 -3.124080737411526 -0.8206362474210696 -3.506055273932945 9.436115756259541 -0.000003352537607324953 -3.5553199540612797 -6.61727926098952e-7
